<svg width="25" height="25" viewBox="0 0 25 25" fill="none" xmlns="http://www.w3.org/2000/svg">
<circle cx="12.5" cy="12.5" r="12" fill="url(#paint0_linear_9810_248)" fill-opacity="0.05" stroke="url(#paint1_linear_9810_248)"/>
<path d="M6.98763 12.4839C6.98763 11.915 7.08707 11.3776 7.28303 10.876C7.47026 10.3888 7.74842 9.94161 8.1027 9.55834C8.45626 9.1801 8.86086 8.85302 9.30479 8.58658C9.76026 8.31103 10.2534 8.10314 10.7686 7.96945C11.2901 7.83251 11.8271 7.76345 12.3663 7.76398C13.1991 7.76398 13.9742 7.9402 14.693 8.29117C15.4024 8.63575 16.0062 9.16455 16.4413 9.8223C16.8902 10.4913 17.1132 11.2481 17.1132 12.0919C17.1132 12.5979 17.0635 13.0929 16.9619 13.577C16.8621 14.0608 16.7035 14.5305 16.4895 14.9758C16.2856 15.4068 16.019 15.8052 15.6984 16.1581C15.3761 16.5054 14.9859 16.7827 14.5519 16.9727C14.0807 17.1792 13.571 17.2831 13.0566 17.2776C12.699 17.2776 12.3422 17.1935 11.9897 17.0246C11.6373 16.8564 11.3843 16.6254 11.2322 16.3292C11.1788 16.5347 11.1057 16.8316 11.0085 17.2198C10.9149 17.6074 10.852 17.8574 10.8242 17.9708C10.795 18.0834 10.7409 18.2713 10.6619 18.5316C10.6083 18.7241 10.5396 18.9122 10.4564 19.0939L10.2049 19.5867C10.0961 19.7982 9.97451 20.0028 9.84076 20.1994C9.70841 20.391 9.54462 20.6199 9.34939 20.8831L9.24044 20.9219L9.16806 20.8429C9.08982 20.0145 9.0496 19.5187 9.0496 19.3549C9.0496 18.8701 9.10737 18.3261 9.22143 17.7222C9.33331 17.1189 9.51026 16.3607 9.7479 15.4489C9.98553 14.5378 10.1215 14.0018 10.1581 13.8432C9.99065 13.5017 9.90583 13.0557 9.90583 12.5073C9.90583 12.0693 10.0426 11.6591 10.3168 11.273C10.5917 10.8884 10.939 10.6961 11.3602 10.6961C11.6826 10.6961 11.9327 10.8028 12.1119 11.0171C12.2917 11.2306 12.3795 11.4997 12.3795 11.828C12.3795 12.176 12.2639 12.6798 12.0314 13.3386C11.7989 13.9982 11.6834 14.4903 11.6834 14.8171C11.6834 15.1483 11.8018 15.4255 12.0387 15.6426C12.2725 15.8599 12.5817 15.9776 12.9008 15.9709C13.1904 15.9709 13.4587 15.9051 13.7081 15.7728C13.9535 15.6443 14.1659 15.4609 14.3288 15.2368C14.6836 14.7501 14.9366 14.1967 15.0725 13.6099C15.1427 13.3013 15.1968 13.0081 15.2304 12.7325C15.2662 12.4553 15.2816 12.1936 15.2816 11.945C15.2816 11.0332 14.992 10.3224 14.4166 9.81353C13.8382 9.30461 13.0851 9.05162 12.1587 9.05162C11.105 9.05162 10.2239 9.39236 9.5183 10.076C8.81196 10.7575 8.4566 11.624 8.4566 12.6747C8.4566 12.9065 8.4917 13.1302 8.55824 13.3467C8.62331 13.5624 8.69424 13.7342 8.77102 13.8614C8.84706 13.9865 8.91872 14.1086 8.98379 14.2212C9.0496 14.3338 9.08397 14.4142 9.08397 14.4625C9.08397 14.6102 9.04521 14.8025 8.96698 15.0401C8.88581 15.2778 8.79003 15.3962 8.6745 15.3962C8.66353 15.3962 8.6182 15.3882 8.53923 15.3714C8.26573 15.2897 8.01874 15.1371 7.82338 14.929C7.61604 14.7133 7.45241 14.4596 7.34153 14.1817C7.23095 13.9048 7.14483 13.6188 7.08414 13.3269C7.01858 13.0507 6.98618 12.7677 6.98763 12.4839V12.4839Z" fill="#555555"/>
<defs>
<linearGradient id="paint0_linear_9810_248" x1="12.5" y1="0" x2="12.5" y2="25" gradientUnits="userSpaceOnUse">
<stop stop-color="#FEFEFF" stop-opacity="0.29"/>
<stop offset="1" stop-color="white" stop-opacity="0.4"/>
</linearGradient>
<linearGradient id="paint1_linear_9810_248" x1="-1.19913" y1="1.67653" x2="27.5638" y2="5.27043" gradientUnits="userSpaceOnUse">
<stop stop-color="white" stop-opacity="0.08"/>
<stop offset="1" stop-color="white" stop-opacity="0.07"/>
</linearGradient>
</defs>
</svg>
