<svg width="117" height="107" viewBox="0 0 117 107" fill="none" xmlns="http://www.w3.org/2000/svg">
<g filter="url(#filter0_d_9794_566)">
<path d="M38.6975 49.5C38.6975 40.9396 45.6371 34 54.1975 34H78.6849V65H54.1975C45.6371 65 38.6975 58.0604 38.6975 49.5Z" fill="#7AC751"/>
<path d="M39.1975 49.5C39.1975 41.2157 45.9132 34.5 54.1975 34.5H78.1849V64.5H54.1975C45.9132 64.5 39.1975 57.7843 39.1975 49.5Z" stroke="white"/>
</g>
<path d="M59.4916 47.761H61.2164V45.6739H63.8036V44.2826H61.2164V42.1956H59.4916V44.2826H56.9044V45.6739H59.4916V47.761ZM56.042 54.022C55.0934 54.022 54.3259 54.6482 54.3259 55.4134C54.3259 56.1786 55.0934 56.8048 56.042 56.8048C56.9907 56.8048 57.7668 56.1786 57.7668 55.4134C57.7668 54.6482 56.9907 54.022 56.042 54.022ZM64.6659 54.022C63.7173 54.022 62.9498 54.6482 62.9498 55.4134C62.9498 56.1786 63.7173 56.8048 64.6659 56.8048C65.6146 56.8048 66.3907 56.1786 66.3907 55.4134C66.3907 54.6482 65.6146 54.022 64.6659 54.022ZM56.1886 51.7611L56.2145 51.6776L56.9907 50.5437H63.4155C64.0623 50.5437 64.6315 50.2584 64.9247 49.8271L68.2535 44.9504L66.7529 44.2826H66.7443L65.7957 45.6739L63.4155 49.1523H57.3615L57.2494 48.9645L55.3176 45.6739L54.4983 44.2826L53.6877 42.8912H50.8677V44.2826H52.5925L55.6971 49.5628L54.5328 51.2672C54.3949 51.462 54.3172 51.6915 54.3172 51.935C54.3172 52.7003 55.0934 53.3264 56.042 53.3264H66.3907V51.935H56.4042C56.2921 51.935 56.1886 51.8585 56.1886 51.7611Z" fill="white"/>
<defs>
<filter id="filter0_d_9794_566" x="0.69751" y="0" width="115.987" height="107" filterUnits="userSpaceOnUse" color-interpolation-filters="sRGB">
<feFlood flood-opacity="0" result="BackgroundImageFix"/>
<feColorMatrix in="SourceAlpha" type="matrix" values="0 0 0 0 0 0 0 0 0 0 0 0 0 0 0 0 0 0 127 0" result="hardAlpha"/>
<feOffset dy="4"/>
<feGaussianBlur stdDeviation="19"/>
<feComposite in2="hardAlpha" operator="out"/>
<feColorMatrix type="matrix" values="0 0 0 0 0 0 0 0 0 0.270588 0 0 0 0 0.513726 0 0 0 1 0"/>
<feBlend mode="normal" in2="BackgroundImageFix" result="effect1_dropShadow_9794_566"/>
<feBlend mode="normal" in="SourceGraphic" in2="effect1_dropShadow_9794_566" result="shape"/>
</filter>
</defs>
</svg>
