<svg width="105" height="106" viewBox="0 0 105 106" fill="none" xmlns="http://www.w3.org/2000/svg">
<g filter="url(#filter0_d_9810_273)">
<ellipse cx="52.4245" cy="51.093" rx="19.4245" ry="19.4472" fill="#7AC751"/>
</g>
<g clip-path="url(#clip0_9810_273)">
<path d="M61.3272 56.7649H59.7085V55.1443C59.7085 54.9294 59.6232 54.7233 59.4715 54.5713C59.3197 54.4194 59.1138 54.334 58.8992 54.334C58.6845 54.334 58.4786 54.4194 58.3269 54.5713C58.1751 54.7233 58.0898 54.9294 58.0898 55.1443V56.7649H56.4711C56.2564 56.7649 56.0506 56.8503 55.8988 57.0022C55.747 57.1542 55.6617 57.3603 55.6617 57.5752C55.6617 57.7901 55.747 57.9962 55.8988 58.1482C56.0506 58.3001 56.2564 58.3855 56.4711 58.3855H58.0898V60.0061C58.0898 60.221 58.1751 60.4271 58.3269 60.5791C58.4786 60.731 58.6845 60.8164 58.8992 60.8164C59.1138 60.8164 59.3197 60.731 59.4715 60.5791C59.6232 60.4271 59.7085 60.221 59.7085 60.0061V58.3855H61.3272C61.5419 58.3855 61.7477 58.3001 61.8995 58.1482C62.0513 57.9962 62.1366 57.7901 62.1366 57.5752C62.1366 57.3603 62.0513 57.1542 61.8995 57.0022C61.7477 56.8503 61.5419 56.7649 61.3272 56.7649Z" fill="white"/>
<path d="M59.7086 46.2309H57.2805C57.2805 44.9415 56.7689 43.7049 55.8582 42.7931C54.9475 41.8814 53.7123 41.3691 52.4244 41.3691C51.1365 41.3691 49.9013 41.8814 48.9906 42.7931C48.0799 43.7049 47.5683 44.9415 47.5683 46.2309H45.1402C44.4963 46.2309 43.8787 46.4871 43.4233 46.9429C42.968 47.3988 42.7122 48.0171 42.7122 48.6619V56.7649C42.7134 57.839 43.1402 58.8688 43.8988 59.6283C44.6575 60.3878 45.686 60.8151 46.7589 60.8164H54.0431C54.2577 60.8164 54.4636 60.731 54.6154 60.579C54.7672 60.4271 54.8524 60.221 54.8524 60.0061C54.8524 59.7912 54.7672 59.5851 54.6154 59.4331C54.4636 59.2811 54.2577 59.1958 54.0431 59.1958H46.7589C46.115 59.1958 45.4974 58.9397 45.042 58.4838C44.5867 58.0279 44.3309 57.4096 44.3309 56.7649V48.6619C44.3309 48.4469 44.4161 48.2408 44.5679 48.0889C44.7197 47.9369 44.9256 47.8516 45.1402 47.8516H47.5683V49.4722C47.5683 49.6871 47.6535 49.8932 47.8053 50.0451C47.9571 50.1971 48.163 50.2825 48.3776 50.2825C48.5923 50.2825 48.7981 50.1971 48.9499 50.0451C49.1017 49.8932 49.187 49.6871 49.187 49.4722V47.8516H55.6618V49.4722C55.6618 49.6871 55.7471 49.8932 55.8989 50.0451C56.0506 50.1971 56.2565 50.2825 56.4712 50.2825C56.6858 50.2825 56.8917 50.1971 57.0435 50.0451C57.1952 49.8932 57.2805 49.6871 57.2805 49.4722V47.8516H59.7086C59.9232 47.8516 60.1291 47.9369 60.2809 48.0889C60.4326 48.2408 60.5179 48.4469 60.5179 48.6619V52.7134C60.5179 52.9283 60.6032 53.1344 60.755 53.2863C60.9068 53.4383 61.1126 53.5237 61.3273 53.5237C61.5419 53.5237 61.7478 53.4383 61.8996 53.2863C62.0513 53.1344 62.1366 52.9283 62.1366 52.7134V48.6619C62.1366 48.0171 61.8808 47.3988 61.4255 46.9429C60.9701 46.4871 60.3525 46.2309 59.7086 46.2309ZM49.187 46.2309C49.187 45.3713 49.5281 44.5469 50.1352 43.9391C50.7423 43.3312 51.5658 42.9897 52.4244 42.9897C53.283 42.9897 54.1065 43.3312 54.7136 43.9391C55.3207 44.5469 55.6618 45.3713 55.6618 46.2309H49.187Z" fill="white"/>
</g>
<defs>
<filter id="filter0_d_9810_273" x="0" y="0.645752" width="104.849" height="104.895" filterUnits="userSpaceOnUse" color-interpolation-filters="sRGB">
<feFlood flood-opacity="0" result="BackgroundImageFix"/>
<feColorMatrix in="SourceAlpha" type="matrix" values="0 0 0 0 0 0 0 0 0 0 0 0 0 0 0 0 0 0 127 0" result="hardAlpha"/>
<feOffset dy="2"/>
<feGaussianBlur stdDeviation="16.5"/>
<feComposite in2="hardAlpha" operator="out"/>
<feColorMatrix type="matrix" values="0 0 0 0 0 0 0 0 0 0 0 0 0 0 0 0 0 0 0.09 0"/>
<feBlend mode="normal" in2="BackgroundImageFix" result="effect1_dropShadow_9810_273"/>
<feBlend mode="normal" in="SourceGraphic" in2="effect1_dropShadow_9810_273" result="shape"/>
</filter>
<clipPath id="clip0_9810_273">
<rect width="19.4245" height="19.4472" fill="white" transform="translate(42.7122 41.3691)"/>
</clipPath>
</defs>
</svg>
