<svg width="32" height="24" viewBox="0 0 32 24" fill="none" xmlns="http://www.w3.org/2000/svg">
<path d="M21.6774 6H18.5806C18.5806 4.4087 17.9281 2.88258 16.7666 1.75736C15.6051 0.632141 14.0297 0 12.3871 0C10.7445 0 9.16911 0.632141 8.0076 1.75736C6.84608 2.88258 6.19355 4.4087 6.19355 6H3.09677C2.27546 6 1.48778 6.31607 0.907024 6.87868C0.326266 7.44129 0 8.20435 0 9L0 19C0.00163908 20.3256 0.545943 21.5964 1.51352 22.5338C2.48109 23.4711 3.79293 23.9984 5.16129 24H19.6129C20.9813 23.9984 22.2931 23.4711 23.2607 22.5338C24.2283 21.5964 24.7726 20.3256 24.7742 19V9C24.7742 8.20435 24.4479 7.44129 23.8672 6.87868C23.2864 6.31607 22.4987 6 21.6774 6ZM12.3871 2C13.4822 2 14.5324 2.42143 15.3068 3.17157C16.0811 3.92172 16.5161 4.93913 16.5161 6H8.25806C8.25806 4.93913 8.69309 3.92172 9.46743 3.17157C10.2418 2.42143 11.292 2 12.3871 2ZM22.7097 19C22.7097 19.7956 22.3834 20.5587 21.8027 21.1213C21.2219 21.6839 20.4342 22 19.6129 22H5.16129C4.33997 22 3.5523 21.6839 2.97154 21.1213C2.39078 20.5587 2.06452 19.7956 2.06452 19V9C2.06452 8.73478 2.17327 8.48043 2.36686 8.29289C2.56044 8.10536 2.823 8 3.09677 8H6.19355V10C6.19355 10.2652 6.3023 10.5196 6.49589 10.7071C6.68948 10.8946 6.95203 11 7.22581 11C7.49958 11 7.76214 10.8946 7.95572 10.7071C8.14931 10.5196 8.25806 10.2652 8.25806 10V8H16.5161V10C16.5161 10.2652 16.6249 10.5196 16.8185 10.7071C17.0121 10.8946 17.2746 11 17.5484 11C17.8222 11 18.0847 10.8946 18.2783 10.7071C18.4719 10.5196 18.5806 10.2652 18.5806 10V8H21.6774C21.9512 8 22.2138 8.10536 22.4073 8.29289C22.6009 8.48043 22.7097 8.73478 22.7097 9V19Z" fill="#555555"/>
<ellipse cx="25.8065" cy="6" rx="6.19355" ry="6" fill="#7AC751"/>
<path d="M26.5209 8C26.4696 8 26.4253 7.98133 26.3879 7.944C26.3506 7.90667 26.3319 7.86233 26.3319 7.811V6.845H24.1339C24.0826 6.845 24.0383 6.82633 24.0009 6.789C23.9636 6.75167 23.9449 6.70733 23.9449 6.656V6.404C23.9449 6.37133 23.9543 6.334 23.9729 6.292C23.9916 6.24533 24.0149 6.20333 24.0429 6.166L26.2549 3.268C26.3389 3.156 26.4299 3.1 26.5279 3.1H26.8079C26.8593 3.1 26.9036 3.11867 26.9409 3.156C26.9783 3.19333 26.9969 3.23767 26.9969 3.289V6.215H27.5989C27.6503 6.215 27.6946 6.23367 27.7319 6.271C27.7693 6.30833 27.7879 6.35267 27.7879 6.404V6.656C27.7879 6.70733 27.7693 6.75167 27.7319 6.789C27.6946 6.82633 27.6503 6.845 27.5989 6.845H26.9969V7.811C26.9969 7.86233 26.9783 7.90667 26.9409 7.944C26.9036 7.98133 26.8593 8 26.8079 8H26.5209ZM26.3319 4.241L24.8129 6.215H26.3319V4.241Z" fill="white"/>
</svg>
