<svg width="25" height="25" viewBox="0 0 25 25" fill="none" xmlns="http://www.w3.org/2000/svg">
<path d="M12.5 0C5.59816 0 0 5.59816 0 12.5C0 19.4018 5.59816 25 12.5 25C19.4018 25 25 19.4018 25 12.5C25 5.59816 19.4018 0 12.5 0ZM18.8395 13.8548C19.4274 14.4172 20.0409 14.954 20.5521 15.593C20.7822 15.8742 21.0123 16.1554 21.1656 16.4877C21.3957 16.9479 21.1912 17.4591 20.7822 17.4847H18.226C17.5614 17.5358 17.0501 17.2802 16.59 16.82C16.2321 16.4622 15.8998 16.0787 15.5675 15.6953C15.4397 15.5419 15.2863 15.3885 15.1074 15.2863C14.7495 15.0562 14.4427 15.1329 14.2638 15.4908C14.0593 15.8742 14.0082 16.2832 13.9826 16.6922C13.9571 17.3057 13.7781 17.4591 13.1646 17.4847C11.8609 17.5358 10.6339 17.3569 9.5092 16.6922C8.51227 16.1043 7.71984 15.3119 7.05521 14.3916C5.72597 12.6022 4.72904 10.6339 3.80879 8.61452C3.60429 8.1544 3.75767 7.92434 4.26892 7.89877C5.11247 7.87321 5.93047 7.87321 6.77403 7.89877C7.10634 7.89877 7.3364 8.10327 7.46421 8.41002C7.92434 9.5092 8.46114 10.5828 9.15133 11.5542C9.33027 11.8098 9.53477 12.0654 9.79039 12.2699C10.0971 12.4744 10.3016 12.3978 10.455 12.0654C10.5317 11.8609 10.5828 11.6309 10.6084 11.4008C10.6851 10.6339 10.6851 9.86708 10.5573 9.1002C10.4806 8.58896 10.2249 8.28221 9.73926 8.17996C9.48364 8.12883 9.53476 8.05215 9.63701 7.89877C9.84151 7.66871 10.046 7.51534 10.4294 7.51534H13.318C13.7781 7.61759 13.8804 7.79652 13.9315 8.25665V11.4775C13.9315 11.6564 14.0082 12.1933 14.3405 12.2955C14.5961 12.3722 14.7751 12.1677 14.9284 12.0143C15.6186 11.273 16.1043 10.4039 16.5644 9.5092C16.7689 9.1002 16.9223 8.69121 17.1012 8.28221C17.229 7.97546 17.408 7.82209 17.7658 7.82209H20.5521C20.6288 7.82209 20.7055 7.82209 20.8078 7.84765C21.2679 7.92434 21.3957 8.12883 21.2679 8.58896C21.0378 9.3047 20.6033 9.9182 20.1687 10.5061C19.7086 11.1452 19.1973 11.7587 18.7372 12.4233C18.2771 13.0368 18.3027 13.3436 18.8395 13.8548Z" fill="black"/>
</svg>
